# xmcd CD database file
#
# Track frame offsets:
#	150
#	20034
#	39503
#	65330
#	83972
#	105287
#	108781
#	130011
#	157070
#	181114
#	207262
#	236695
#	255484
#	281473
#
# Disc length: 4003 seconds
#
# Revision: 0
# Processed by: cddbd v1.5.2PL0 Copyright (c) Steve Scherf et al.
# Submitted via: CDex 1.51
#
DISCID=b20fa10e
DTITLE=Willie and Lobo - Fandango Nights
DYEAR=1994
DGENRE=New Age
TTITLE0=01 - Fandango Nights
TTITLE1=02 - Sweet Meandering
TTITLE2=03 - Om Khalsoum
TTITLE3=04 - Bahia de Banderas
TTITLE4=05 - Andale
TTITLE5=06 - Prelude to Pablo
TTITLE6=07 - Pablo
TTITLE7=08 - Rocken' Gypsies
TTITLE8=09 - Plight of the Whales
TTITLE9=10 - Lorena Triste
TTITLE10=11 - Dozen Camels
TTITLE11=12 - Black Fire
TTITLE12=13 - Midnight Dream
TTITLE13=14 - Royal Reel
EXTD=YEAR: 1994
EXTT0=
EXTT1=
EXTT2=
EXTT3=
EXTT4=
EXTT5=
EXTT6=
EXTT7=
EXTT8=
EXTT9=
EXTT10=
EXTT11=
EXTT12=
EXTT13=
PLAYORDER=
